<svg width="70" height="61" viewBox="0 0 70 61" fill="none" xmlns="http://www.w3.org/2000/svg">
<path d="M42.4498 53.4573C43.3046 53.4573 43.9744 53.6614 44.4592 54.0697C44.9441 54.478 45.1865 55.0393 45.1865 55.7538C45.1865 56.4682 44.9441 57.0296 44.4592 57.4378C43.9744 57.8397 43.3046 58.0407 42.4498 58.0407H40.6509V60.1553H39.9429V53.4573H42.4498ZM42.4307 57.4187C43.0941 57.4187 43.6013 57.2752 43.9521 56.9881C44.303 56.6947 44.4784 56.2832 44.4784 55.7538C44.4784 55.2116 44.303 54.7969 43.9521 54.5099C43.6013 54.2164 43.0941 54.0697 42.4307 54.0697H40.6509V57.4187H42.4307Z" fill="#AE924E"/>
<path d="M49.1097 53.4573H49.8177V60.1553H49.1097V53.4573Z" fill="#AE924E"/>
<path d="M59.9868 53.4573V60.1553H59.4031L55.0973 54.7204V60.1553H54.3892V53.4573H54.9729L59.2883 58.8923V53.4573H59.9868Z" fill="#AE924E"/>
<path d="M69.2825 56.8063H69.9618V59.3611C69.6493 59.6354 69.2793 59.8459 68.8519 59.9927C68.4245 60.1394 67.9748 60.2127 67.5027 60.2127C66.8329 60.2127 66.2301 60.066 65.6943 59.7726C65.1584 59.4791 64.7374 59.0741 64.4312 58.5574C64.125 58.0343 63.9719 57.4506 63.9719 56.8063C63.9719 56.162 64.125 55.5815 64.4312 55.0648C64.7374 54.5418 65.1584 54.1335 65.6943 53.8401C66.2301 53.5466 66.8361 53.3999 67.5123 53.3999C68.0226 53.3999 68.4915 53.4828 68.9189 53.6487C69.3463 53.8082 69.7067 54.0474 70.0001 54.3663L69.56 54.8161C69.0305 54.293 68.3575 54.0314 67.541 54.0314C66.9988 54.0314 66.5076 54.1526 66.0674 54.395C65.6337 54.6311 65.2924 54.9628 65.0436 55.3902C64.7948 55.8112 64.6704 56.2832 64.6704 56.8063C64.6704 57.3294 64.7948 57.8015 65.0436 58.2225C65.2924 58.6435 65.6337 58.9752 66.0674 59.2176C66.5012 59.46 66.9892 59.5812 67.5314 59.5812C68.2204 59.5812 68.804 59.409 69.2825 59.0645V56.8063Z" fill="#AE924E"/>
<path d="M4.94696 56.6974H6.36311V59.4149C5.9995 59.6892 5.57849 59.8997 5.10006 60.0464C4.62163 60.1932 4.14001 60.2665 3.6552 60.2665C2.95988 60.2665 2.33473 60.1198 1.77976 59.8264C1.22478 59.5266 0.787814 59.1151 0.468861 58.592C0.156287 58.0626 0 57.4661 0 56.8027C0 56.1393 0.156287 55.546 0.468861 55.0229C0.787814 54.4935 1.22797 54.082 1.78933 53.7886C2.35068 53.4888 2.98221 53.3389 3.68391 53.3389C4.27078 53.3389 4.80343 53.4377 5.28186 53.6355C5.76029 53.8332 6.16217 54.1203 6.4875 54.4967L5.49237 55.4153C5.01394 54.9113 4.43663 54.6593 3.76045 54.6593C3.33306 54.6593 2.9535 54.7486 2.62179 54.9273C2.29008 55.1059 2.03173 55.3578 1.84674 55.6832C1.66174 56.0085 1.56925 56.3817 1.56925 56.8027C1.56925 57.2173 1.66174 57.5873 1.84674 57.9127C2.03173 58.238 2.28689 58.4931 2.61222 58.6781C2.94393 58.8568 3.3203 58.9461 3.74132 58.9461C4.18785 58.9461 4.58973 58.8504 4.94696 58.659V56.6974Z" fill="black" fill-opacity="0.9"/>
<path d="M10.1952 53.4537H11.7453V58.8886H15.1039V60.1517H10.1952V53.4537Z" fill="black" fill-opacity="0.9"/>
<path d="M22.8293 58.7164H19.7195L19.1263 60.1517H17.5379L20.5233 53.4537H22.0542L25.0492 60.1517H23.4225L22.8293 58.7164ZM22.3413 57.5395L21.2792 54.9751L20.2171 57.5395H22.3413Z" fill="black" fill-opacity="0.9"/>
<path d="M34.2315 60.1517L34.2219 56.1329L32.2508 59.4436H31.5523L29.5907 56.219V60.1517H28.1363V53.4537H29.4185L31.9254 57.616L34.3941 53.4537H35.6668L35.6859 60.1517H34.2315Z" fill="black" fill-opacity="0.9"/>
<path fill-rule="evenodd" clip-rule="evenodd" d="M35.2427 0L60.9122 47.0607H9.57324L35.2427 0ZM29.3156 12.1788L35.2427 23.0451L41.1698 12.1788L35.2427 1.31252L29.3156 12.1788ZM41.5277 12.8351L35.6007 23.7014L41.5277 34.5676L47.4548 23.7014L41.5277 12.8351ZM47.8128 24.3576L41.8857 35.2239L47.8128 46.0902L53.7398 35.2239L47.8128 24.3576ZM54.0978 35.8802L48.3421 46.4322H59.8534L54.0978 35.8802ZM47.2834 46.4322H35.7721L41.5277 35.8802L47.2834 46.4322ZM41.1698 35.2239L35.2427 24.3576L29.3156 35.2239L35.2427 46.0902L41.1698 35.2239ZM34.7133 46.4322L28.9577 35.8802L23.202 46.4322H34.7133ZM22.6727 46.0902L28.5997 35.2239L22.6727 24.3576L16.7456 35.2239L22.6727 46.0902ZM16.3876 35.8802L10.632 46.4322H22.1433L16.3876 35.8802ZM23.0306 23.7014L28.9577 34.5676L34.8847 23.7014L28.9577 12.8351L23.0306 23.7014Z" fill="#AE924E"/>
</svg>
